<svg data-v-423bf9ae="" xmlns="http://www.w3.org/2000/svg" viewBox="0 0 351 107" class="iconLeft"><!----><!----><!----><g data-v-423bf9ae="" id="4f178bb4-f77f-4804-9981-f1de5d596291" fill="#000000" transform="matrix(5.190311658471062,0,0,5.190311658471062,100.02454912776462,-40.94821797408831)"><path d="M6.30 18.16L6.30 18.16Q7.04 18.16 7.48 17.64L7.48 17.64L7.48 17.64Q7.91 17.12 7.91 16.21L7.91 16.21L7.91 16.21Q7.91 15.11 7.38 14.41L7.38 14.41L7.38 14.41Q6.85 13.72 5.81 13.72L5.81 13.72L5.81 13.72Q5.12 13.72 4.52 14.14L4.52 14.14L4.52 22.19L6.96 22.72L6.50 23.63L0.67 23.63L0.67 22.85L1.99 21.81L1.99 14.01L0.43 13.54L0.90 12.63L3.22 12.63L3.22 12.63Q4.47 12.63 5.67 12.54L5.67 12.54L5.67 12.54Q6.57 12.49 6.99 12.49L6.99 12.49L6.99 12.49Q8.08 12.49 8.92 12.92L8.92 12.92L8.92 12.92Q9.76 13.34 10.22 14.08L10.22 14.08L10.22 14.08Q10.68 14.83 10.68 15.74L10.68 15.74L10.68 15.74Q10.68 16.74 9.91 17.63L9.91 17.63L9.91 17.63Q9.14 18.51 7.97 19.01L7.97 19.01L7.97 19.01Q6.79 19.52 5.67 19.46L5.67 19.46L5.05 19.08L5.52 18.17L6.30 18.17L6.30 18.16ZM21.62 23.90L20.61 23.65L11.76 23.65L11.76 22.86L13.08 21.83L13.08 14.00L11.52 13.54L11.98 12.63L20.47 12.63L21.48 12.38L21.48 15.95L20.71 16.25L18.98 13.69L15.61 13.69L15.61 17.47L17.28 17.47L18.30 15.90L19.08 15.90L19.08 19.98L18.17 20.44L17.26 18.55L15.61 18.55L15.61 22.57L18.87 22.57L20.85 19.71L21.62 20.03L21.62 23.90ZM29.79 12.35L29.79 12.35Q31.40 12.35 32.63 13.06L32.63 13.06L32.63 13.06Q33.87 13.78 34.54 15.04L34.54 15.04L34.54 15.04Q35.21 16.30 35.21 17.89L35.21 17.89L35.21 17.89Q35.21 19.53 34.19 20.92L34.19 20.92L34.19 20.92Q33.17 22.30 31.66 23.11L31.66 23.11L31.66 23.11Q30.16 23.91 28.80 23.91L28.80 23.91L28.80 23.91Q27.19 23.91 25.96 23.21L25.96 23.21L25.96 23.21Q24.74 22.50 24.06 21.24L24.06 21.24L24.06 21.24Q23.38 19.98 23.38 18.38L23.38 18.38L23.38 18.38Q23.38 16.74 24.40 15.35L24.40 15.35L24.40 15.35Q25.41 13.96 26.92 13.15L26.92 13.15L26.92 13.15Q28.43 12.35 29.79 12.35L29.79 12.35ZM28.98 13.96L28.98 13.96Q28.20 13.96 27.55 14.45L27.55 14.45L27.55 14.45Q26.89 14.94 26.52 15.79L26.52 15.79L26.52 15.79Q26.14 16.65 26.14 17.71L26.14 17.71L26.14 17.71Q26.14 18.97 26.52 20.01L26.52 20.01L26.52 20.01Q26.91 21.06 27.69 21.68L27.69 21.68L27.69 21.68Q28.46 22.30 29.61 22.30L29.61 22.30L29.61 22.30Q30.38 22.30 31.03 21.81L31.03 21.81L31.03 21.81Q31.68 21.32 32.06 20.47L32.06 20.47L32.06 20.47Q32.44 19.61 32.44 18.55L32.44 18.55L32.44 18.55Q32.44 17.28 32.06 16.24L32.06 16.24L32.06 16.24Q31.68 15.20 30.91 14.58L30.91 14.58L30.91 14.58Q30.13 13.96 28.98 13.96L28.98 13.96ZM48.30 13.41L46.97 14.53L46.97 23.63L45.77 23.63L39.20 16.14L39.20 21.98L41.19 22.72L40.74 23.63L36.68 23.63L36.68 22.85L38.00 21.74L38.00 14.39L36.44 13.54L36.90 12.63L39.37 12.63L45.77 19.91L45.77 14.27L43.78 13.54L44.24 12.63L48.30 12.63L48.30 13.41Z"></path></g><defs data-v-423bf9ae=""><linearGradient data-v-423bf9ae="" gradientTransform="rotate(25)" id="dce455c4-6abf-4ed9-a03d-ab64083f7df0" x1="0%" y1="0%" x2="100%" y2="0%"><stop data-v-423bf9ae="" offset="0%" style="stop-color: rgb(1, 100, 139); stop-opacity: 1;"></stop><stop data-v-423bf9ae="" offset="100%" style="stop-color: rgb(91, 208, 164); stop-opacity: 1;"></stop></linearGradient></defs><g data-v-423bf9ae="" id="45413e39-7d4b-4fb7-a36a-16a4bb86a3c1" transform="matrix(1.0868111504448785,0,0,1.0868111504448785,-13.255261890115804,-0.23894260335429607)" stroke="none" fill="url(#dce455c4-6abf-4ed9-a03d-ab64083f7df0)"><g clip-rule="evenodd"><path d="M12.983 10.59l17.018 88.223-5.872-59.049 29.021-1.892-.054-9.883L64.549 1 53.622 18.977z"></path><path d="M59.389 54.548l5.16-53.541-8.74 39.716-19.612 1.045 1.57 20.462-7.766 36.583 12.057-39.899z"></path><path d="M62.8 67.182l.549-10.453-15.979 3.755-.032 11.797-17.337 26.532 21.68-27.616zM65.711 62.394l14.841-4.731 1.509-12.532-15.899 2.095zM72.07 44.502l10.988-1.417 1.581-10.278-8.079-.373L64.549 1l8.43 30.967z"></path><path d="M87.413 31.294l1.256-9.506-9.544-2.694L64.549 1l14.483 22.437-.422 7z"></path></g></g><!----></svg>